HIERARCHY
ROOT Hips
{
	OFFSET 0.000000 83.214638 0.000000
	CHANNELS 6 Xposition Yposition Zposition Xrotation Yrotation Zrotation
	JOINT Pelvis
	{
		OFFSET 0.000000 0.000000 0.000000
		CHANNELS 3 Xrotation Yrotation Zrotation
		JOINT LeftUpLeg
		{
			OFFSET 8.479700 -4.795502 -0.379100
			CHANNELS 3 Xrotation Yrotation Zrotation
			JOINT LeftLeg
			{
				OFFSET 0.024144 -32.555107 0.112900
				CHANNELS 3 Xrotation Yrotation Zrotation
				JOINT LeftFoot
				{
					OFFSET -0.024144 -32.638630 -3.012600
					CHANNELS 3 Xrotation Yrotation Zrotation
					JOINT LeftToeBase
					{
						OFFSET 0.970200 -13.225400 11.864200
						CHANNELS 3 Xrotation Yrotation Zrotation
						End Site
						{
							OFFSET 0.000000 12.319262 0.000000
						}
					}
					JOINT LFootTongue
					{
						OFFSET 1.142400 -1.059800 6.665200
						CHANNELS 3 Xrotation Yrotation Zrotation
						End Site
						{
							OFFSET 0.000000 12.319262 0.000000
						}
					}
				}
				JOINT LeftPantLeg
				{
					OFFSET 0.918482 -16.533964 -2.284700
					CHANNELS 3 Xrotation Yrotation Zrotation
					End Site
					{
						OFFSET 0.350399 24.744368 0.000000
					}
				}
			}
		}
		JOINT RightUpLeg
		{
			OFFSET -8.479700 -4.795502 -0.379100
			CHANNELS 3 Xrotation Yrotation Zrotation
			JOINT RightLeg
			{
				OFFSET -0.023144 -32.555092 0.112900
				CHANNELS 3 Xrotation Yrotation Zrotation
				JOINT RightFoot
				{
					OFFSET 0.023144 -32.638641 -3.012700
					CHANNELS 3 Xrotation Yrotation Zrotation
					JOINT RightToeBase
					{
						OFFSET -0.970200 -13.225400 11.864200
						CHANNELS 3 Xrotation Yrotation Zrotation
						End Site
						{
							OFFSET 0.000000 12.319244 0.000000
						}
					}
					JOINT RFootTongue
					{
						OFFSET -1.142200 -1.059800 6.665200
						CHANNELS 3 Xrotation Yrotation Zrotation
						End Site
						{
							OFFSET 0.000000 12.319243 0.000000
						}
					}
				}
				JOINT RightPantLeg
				{
					OFFSET -0.919482 -16.533978 -2.284800
					CHANNELS 3 Xrotation Yrotation Zrotation
					End Site
					{
						OFFSET -0.350400 24.744419 0.000000
					}
				}
			}
		}
	}
	JOINT Spine
	{
		OFFSET 0.000000 7.722000 1.166200
		CHANNELS 3 Xrotation Yrotation Zrotation
		JOINT Spine1
		{
			OFFSET 0.000000 12.024101 0.248800
			CHANNELS 3 Xrotation Yrotation Zrotation
			JOINT Spine2
			{
				OFFSET 0.000000 11.502998 -0.491200
				CHANNELS 3 Xrotation Yrotation Zrotation
				JOINT Neck
				{
					OFFSET 0.000000 18.430702 -3.123100
					CHANNELS 3 Xrotation Yrotation Zrotation
					JOINT Head
					{
						OFFSET 0.000000 9.051102 1.034000
						CHANNELS 3 Xrotation Yrotation Zrotation
						JOINT HairB
						{
							OFFSET 0.208400 24.786102 24.822300
							CHANNELS 3 Xrotation Yrotation Zrotation
							End Site
							{
								OFFSET 0.000000 32.263779 0.000000
							}
						}
						JOINT HairA
						{
							OFFSET -7.081100 24.428299 23.196600
							CHANNELS 3 Xrotation Yrotation Zrotation
							End Site
							{
								OFFSET 0.000000 32.263779 0.000000
							}
						}
						JOINT Hat
						{
							OFFSET 16.728800 15.048294 -15.439601
							CHANNELS 3 Xrotation Yrotation Zrotation
							End Site
							{
								OFFSET 0.000000 32.263779 0.000000
							}
						}
					}
				}
				JOINT LeftShoulder
				{
					OFFSET 6.197800 13.665199 -4.064700
					CHANNELS 3 Xrotation Yrotation Zrotation
					JOINT LeftArm
					{
						OFFSET 7.778100 -0.187103 -1.709300
						CHANNELS 3 Xrotation Yrotation Zrotation
						JOINT LeftForeArm
						{
							OFFSET 22.049376 0.000000 0.000000
							CHANNELS 3 Xrotation Yrotation Zrotation
							JOINT LeftHand
							{
								OFFSET 23.009392 0.000000 0.000000
								CHANNELS 3 Xrotation Yrotation Zrotation
								JOINT LeftHandThumb1
								{
									OFFSET 3.507191 -2.063065 3.133727
									CHANNELS 3 Xrotation Yrotation Zrotation
									JOINT LeftHandThumb2
									{
										OFFSET 3.101337 -1.790558 1.790558
										CHANNELS 3 Xrotation Yrotation Zrotation
										JOINT LeftHandThumb3
										{
											OFFSET 3.058640 -1.765907 1.765906
											CHANNELS 3 Xrotation Yrotation Zrotation
											End Site
											{
												OFFSET -0.415260 3.926476 -0.049563
											}
										}
									}
								}
								JOINT LeftHandIndex1
								{
									OFFSET 11.334419 -0.901459 3.706815
									CHANNELS 3 Xrotation Yrotation Zrotation
									JOINT LeftHandIndex2
									{
										OFFSET 3.283112 0.000000 0.000000
										CHANNELS 3 Xrotation Yrotation Zrotation
										JOINT LeftHandIndex3
										{
											OFFSET 3.323853 0.000000 0.000000
											CHANNELS 3 Xrotation Yrotation Zrotation
											End Site
											{
												OFFSET -1.135597 3.097809 0.402452
											}
										}
									}
								}
								JOINT LeftHandMiddle1
								{
									OFFSET 11.335861 0.000000 0.000000
									CHANNELS 3 Xrotation Yrotation Zrotation
									JOINT LeftHandMiddle2
									{
										OFFSET 3.410492 0.000000 0.000000
										CHANNELS 3 Xrotation Yrotation Zrotation
										JOINT LeftHandMiddle3
										{
											OFFSET 3.312172 0.000000 0.000000
											CHANNELS 3 Xrotation Yrotation Zrotation
											End Site
											{
												OFFSET -1.150200 3.080154 0.400270
											}
										}
									}
								}
								JOINT LeftHandRing1
								{
									OFFSET 11.514786 -0.013176 -3.003090
									CHANNELS 3 Xrotation Yrotation Zrotation
									JOINT LeftHandRing2
									{
										OFFSET 3.053307 0.000000 0.000000
										CHANNELS 3 Xrotation Yrotation Zrotation
										JOINT LeftHandRing3
										{
											OFFSET 3.295807 0.000000 0.000000
											CHANNELS 3 Xrotation Yrotation Zrotation
											End Site
											{
												OFFSET -1.281006 3.013344 0.375733
											}
										}
									}
								}
								JOINT LeftHandPinky1
								{
									OFFSET 10.518692 -0.960396 -5.730441
									CHANNELS 3 Xrotation Yrotation Zrotation
									JOINT LeftHandPinky2
									{
										OFFSET 2.861649 0.000000 0.000000
										CHANNELS 3 Xrotation Yrotation Zrotation
										JOINT LeftHandPinky3
										{
											OFFSET 2.863380 0.000000 0.000000
											CHANNELS 3 Xrotation Yrotation Zrotation
											End Site
											{
												OFFSET -0.843597 2.711159 0.369971
											}
										}
									}
								}
							}
							JOINT LSleeve
							{
								OFFSET 6.676277 -0.344902 -1.011730
								CHANNELS 3 Xrotation Yrotation Zrotation
								End Site
								{
									OFFSET 0.000000 14.885353 0.000000
								}
							}
						}
					}
				}
				JOINT RightShoulder
				{
					OFFSET -6.197800 13.665199 -4.064700
					CHANNELS 3 Xrotation Yrotation Zrotation
					JOINT RightArm
					{
						OFFSET -7.778100 -0.187103 -1.709300
						CHANNELS 3 Xrotation Yrotation Zrotation
						JOINT RightForeArm
						{
							OFFSET -22.049376 0.000000 0.000000
							CHANNELS 3 Xrotation Yrotation Zrotation
							JOINT RightHand
							{
								OFFSET -23.009392 0.000000 0.000000
								CHANNELS 3 Xrotation Yrotation Zrotation
								JOINT RightHandThumb1
								{
									OFFSET -3.507191 -2.063065 3.133727
									CHANNELS 3 Xrotation Yrotation Zrotation
									JOINT RightHandThumb2
									{
										OFFSET -3.101337 -1.790558 1.790558
										CHANNELS 3 Xrotation Yrotation Zrotation
										JOINT RightHandThumb3
										{
											OFFSET -3.058640 -1.765907 1.765906
											CHANNELS 3 Xrotation Yrotation Zrotation
											End Site
											{
												OFFSET 0.415260 3.926476 -0.049563
											}
										}
									}
								}
								JOINT RightHandIndex1
								{
									OFFSET -11.334419 -0.901459 3.706815
									CHANNELS 3 Xrotation Yrotation Zrotation
									JOINT RightHandIndex2
									{
										OFFSET -3.283112 0.000000 0.000000
										CHANNELS 3 Xrotation Yrotation Zrotation
										JOINT RightHandIndex3
										{
											OFFSET -3.323853 0.000000 0.000000
											CHANNELS 3 Xrotation Yrotation Zrotation
											End Site
											{
												OFFSET 1.135597 3.097809 0.402452
											}
										}
									}
								}
								JOINT RightHandMiddle1
								{
									OFFSET -11.335861 0.000000 0.000000
									CHANNELS 3 Xrotation Yrotation Zrotation
									JOINT RightHandMiddle2
									{
										OFFSET -3.410492 0.000000 0.000000
										CHANNELS 3 Xrotation Yrotation Zrotation
										JOINT RightHandMiddle3
										{
											OFFSET -3.312172 0.000000 0.000000
											CHANNELS 3 Xrotation Yrotation Zrotation
											End Site
											{
												OFFSET 1.150200 3.080154 0.400270
											}
										}
									}
								}
								JOINT RightHandRing1
								{
									OFFSET -11.514786 -0.013176 -3.003090
									CHANNELS 3 Xrotation Yrotation Zrotation
									JOINT RightHandRing2
									{
										OFFSET -3.053307 0.000000 0.000000
										CHANNELS 3 Xrotation Yrotation Zrotation
										JOINT RightHandRing3
										{
											OFFSET -3.295807 0.000000 0.000000
											CHANNELS 3 Xrotation Yrotation Zrotation
											End Site
											{
												OFFSET 1.281006 3.013344 0.375733
											}
										}
									}
								}
								JOINT RightHandPinky1
								{
									OFFSET -10.518692 -0.960396 -5.730441
									CHANNELS 3 Xrotation Yrotation Zrotation
									JOINT RightHandPinky2
									{
										OFFSET -2.861649 0.000000 0.000000
										CHANNELS 3 Xrotation Yrotation Zrotation
										JOINT RightHandPinky3
										{
											OFFSET -2.863380 0.000000 0.000000
											CHANNELS 3 Xrotation Yrotation Zrotation
											End Site
											{
												OFFSET 0.843597 2.711159 0.369971
											}
										}
									}
								}
							}
							JOINT RSleeve
							{
								OFFSET -6.676277 -0.344902 -1.011730
								CHANNELS 3 Xrotation Yrotation Zrotation
								End Site
								{
									OFFSET 0.000000 14.885353 0.000000
								}
							}
						}
					}
				}
				JOINT Backpack
				{
					OFFSET 0.000000 -2.471497 36.677502
					CHANNELS 3 Xrotation Yrotation Zrotation
					End Site
					{
						OFFSET 0.000000 20.427315 0.000000
					}
				}
				JOINT Hood
				{
					OFFSET 0.000000 18.754097 -10.431000
					CHANNELS 3 Xrotation Yrotation Zrotation
					JOINT Hood1
					{
						OFFSET 0.000000 -5.011002 -7.685901
						CHANNELS 3 Xrotation Yrotation Zrotation
						End Site
						{
							OFFSET 0.000000 9.175140 0.000000
						}
					}
				}
				JOINT LHoodieString
				{
					OFFSET 5.250500 16.397697 3.089900
					CHANNELS 3 Xrotation Yrotation Zrotation
					JOINT LHoodieString1
					{
						OFFSET 0.257700 -6.364304 3.694600
						CHANNELS 3 Xrotation Yrotation Zrotation
						JOINT LHoodieString2
						{
							OFFSET 0.000000 -9.643799 2.679100
							CHANNELS 3 Xrotation Yrotation Zrotation
							End Site
							{
								OFFSET 0.000000 10.009018 0.000000
							}
						}
					}
				}
				JOINT RHoodieString
				{
					OFFSET -5.250500 16.397697 3.089900
					CHANNELS 3 Xrotation Yrotation Zrotation
					JOINT RHoodieString1
					{
						OFFSET -0.257700 -6.364304 3.694600
						CHANNELS 3 Xrotation Yrotation Zrotation
						JOINT RHoodieString2
						{
							OFFSET 0.000000 -9.643799 2.679100
							CHANNELS 3 Xrotation Yrotation Zrotation
							End Site
							{
								OFFSET 0.000000 10.009018 0.000000
							}
						}
					}
				}
			}
			JOINT LBackpack_Strap
			{
				OFFSET 15.223200 -7.719803 -6.610900
				CHANNELS 3 Xrotation Yrotation Zrotation
				End Site
				{
					OFFSET 0.000000 16.040596 0.000000
				}
			}
			JOINT RBackpack_Strap
			{
				OFFSET -15.223000 -7.719803 -6.610900
				CHANNELS 3 Xrotation Yrotation Zrotation
				End Site
				{
					OFFSET 0.000000 16.040596 0.000000
				}
			}
		}
	}
	JOINT BoyFacialAnim_Joint
	{
		OFFSET 1.000000 -82.208099 -1.550900
		CHANNELS 3 Xrotation Yrotation Zrotation
		End Site
		{
			OFFSET 0.000000 30.012791 0.000000
		}
	}
}
MOTION
Frames: 5
Frame Time: 0.033333
7.556847 78.038788 35.854298 13.721597 21.519179 -5.084469 0.000001 -0.000000 0.000001 -41.678033 7.289352 4.113595 36.837372 9.309161 4.646080 -4.557252 30.128012 -6.983383 0.000000 0.000000 0.000000 0.000000 0.000000 0.000000 0.000000 0.000002 0.000000 -33.402255 -5.854232 -4.343345 39.780931 9.883880 0.815597 -18.894475 10.943747 -2.102476 -0.000000 0.000000 0.000000 -0.000000 0.000000 0.000000 0.000002 -0.000001 0.000001 10.959336 -2.708476 3.073358 21.318378 -5.979967 3.605484 21.348747 -5.904611 3.506607 -5.941281 0.248496 5.948835 -29.895489 1.564450 16.148256 0.000000 0.000000 -0.000001 0.000000 0.000000 -0.000001 0.000000 0.000000 -0.000001 -2.391798 4.366893 32.060471 -99.578749 -66.573656 -53.966079 0.000002 -36.028391 0.000000 6.944112 -6.197444 -1.996820 -1.540037 3.690184 6.142347 3.939063 7.948698 0.746815 0.000000 0.000002 -0.000000 0.000031 -0.021376 0.177142 0.000097 0.032968 -0.273392 -0.000001 -0.000000 -0.000005 0.000009 -0.001933 0.015968 -0.000007 0.001934 -0.015977 0.000002 -0.000001 -0.000000 0.000008 -0.000008 -0.000004 0.000006 -0.000002 0.000003 -0.000001 -0.000001 -0.000000 -0.018071 4.054255 0.511061 -0.018103 -4.054253 -0.511062 -0.000000 0.000003 0.000002 -0.000001 0.000000 0.000001 -0.266196 -1.354026 -10.544460 -67.536753 41.339918 36.828691 -0.000002 36.907883 0.000009 32.812717 9.730062 28.134130 -1.849253 -3.581791 -6.586136 4.637204 -8.634131 -0.225407 0.000002 0.000001 0.000004 0.000031 0.021587 -0.177122 0.000077 -0.033316 0.273353 0.000001 0.000000 0.000005 -0.000001 -0.000001 0.000009 -0.000001 -0.000003 -0.000002 0.000001 0.000004 0.000004 -0.000002 -0.000000 0.000001 -0.000005 0.000000 -0.000001 -0.000001 0.000001 0.000004 -0.000004 0.000000 -0.000004 -0.000000 0.000000 -0.000005 -0.000005 -0.000002 -0.000002 0.000000 0.000000 0.000001 0.000001 0.000000 0.000000 0.000001 0.000000 0.000000 0.000001 0.000000 0.000000 0.000001 0.000000 0.000000 0.000001 0.000000 -0.000000 -0.000001 0.000000 0.000000 0.000001 0.000000 0.000000 0.000001 0.000000 -0.000000 -0.000001 0.000000 0.000000 0.000001 -0.000001 -0.000000 0.000001 -0.000001 -0.000000 0.000001 -0.000000 0.000001 
7.187382 77.926224 36.745274 14.807102 23.657433 -5.706988 -0.000001 0.000001 -0.000000 -42.207943 6.872171 3.913470 37.320471 9.361101 4.442472 -5.017337 30.073924 -7.285808 0.000000 -0.000000 0.000000 0.000000 -0.000000 0.000000 -0.000000 0.000002 0.000000 -33.467271 -5.873560 -3.876590 40.296870 9.884979 0.729761 -20.009557 8.846635 -2.871076 0.000000 0.000002 0.000000 0.000000 0.000002 0.000000 -0.000000 -0.000001 -0.000000 10.793278 -2.739390 2.895080 20.977654 -6.155321 3.077750 21.008864 -6.072942 2.977912 -6.333363 0.080851 5.311958 -30.401080 0.718658 14.377348 -0.000003 0.000000 -0.000000 -0.000003 0.000000 -0.000000 -0.000003 0.000000 -0.000000 -2.094982 3.675813 31.613049 -98.113502 -67.079117 -53.153208 0.000003 -36.424091 -0.000004 8.104493 -5.721495 -4.205438 -1.540039 3.690188 6.142347 3.939063 7.948698 0.746814 -0.000001 -0.000001 -0.000001 0.000029 -0.021370 0.177145 0.000098 0.032971 -0.273393 -0.000001 -0.000001 -0.000004 0.000007 -0.001927 0.015972 -0.000005 0.001930 -0.015981 0.000000 -0.000001 -0.000000 0.000009 -0.000007 -0.000003 0.000006 0.000000 0.000001 0.000001 0.000000 -0.000004 -0.018073 4.054259 0.511060 -0.018099 -4.054259 -0.511059 0.000000 0.000003 0.000000 0.000001 0.000001 0.000001 -0.297233 -1.672165 -9.957705 -65.555316 41.358602 35.055160 -0.000002 38.154065 0.000002 31.230736 10.044398 29.466621 -1.849251 -3.581788 -6.586139 4.637201 -8.634129 -0.225408 0.000004 -0.000000 0.000002 0.000030 0.021584 -0.177117 0.000076 -0.033315 0.273361 -0.000002 -0.000001 0.000005 -0.000002 0.000000 0.000006 0.000002 -0.000002 -0.000004 0.000004 0.000000 -0.000000 -0.000004 0.000002 -0.000001 -0.000003 -0.000000 0.000000 0.000001 0.000000 0.000000 -0.000004 0.000001 -0.000003 -0.000003 0.000001 -0.000010 0.000002 -0.000002 -0.000002 0.000001 0.000000 -0.000003 -0.000001 -0.000000 0.000001 -0.000001 -0.000000 0.000001 -0.000001 -0.000000 0.000001 -0.000001 -0.000000 0.000001 -0.000001 -0.000000 0.000001 -0.000001 -0.000000 0.000000 -0.000001 -0.000000 0.000001 -0.000001 -0.000000 0.000001 -0.000001 -0.000000 0.000000 -0.000001 0.000001 -0.000001 -0.000001 0.000001 -0.000001 -0.000001 0.000001 -0.000000 
6.764450 77.937424 37.633072 15.709838 25.918083 -6.178221 -0.000000 0.000001 -0.000000 -42.222993 6.359370 3.636847 36.948069 9.399104 4.276284 -4.789951 30.051418 -7.725261 -0.000000 -0.000002 0.000000 -0.000000 -0.000002 0.000000 0.000001 0.000003 -0.000001 -33.218789 -6.762073 -3.879126 40.286348 10.551103 0.760723 -20.741435 6.754823 -3.918613 -0.000000 -0.000000 0.000000 -0.000000 -0.000000 0.000000 0.000001 -0.000002 -0.000001 10.759259 -2.804456 2.641616 20.908196 -6.387992 2.457409 20.940364 -6.295832 2.356163 -6.524404 -0.091224 4.599725 -31.229418 -0.176420 12.125217 -0.000001 0.000000 -0.000000 -0.000001 0.000000 -0.000000 -0.000001 0.000000 -0.000000 -1.796195 3.010964 30.882086 -96.559218 -67.569333 -51.979857 0.000003 -36.551587 0.000002 9.201401 -4.803944 -6.928599 -1.540042 3.690186 6.142345 3.939064 7.948695 0.746816 -0.000000 0.000001 0.000001 0.000029 -0.021378 0.177143 0.000096 0.032976 -0.273392 -0.000001 0.000000 -0.000005 0.000006 -0.001933 0.015970 -0.000006 0.001931 -0.015983 0.000000 -0.000003 -0.000000 0.000007 -0.000010 -0.000002 0.000003 0.000000 -0.000002 -0.000003 0.000003 -0.000003 -0.018074 4.054255 0.511060 -0.018100 -4.054256 -0.511059 0.000000 -0.000004 -0.000001 -0.000001 -0.000003 0.000002 -0.336963 -2.040243 -9.423510 -64.538881 41.317167 33.763712 -0.000008 38.977581 0.000008 29.491534 10.159100 29.980084 -1.849256 -3.581791 -6.586139 4.637203 -8.634127 -0.225402 0.000003 0.000001 0.000002 0.000032 0.021583 -0.177119 0.000082 -0.033308 0.273363 0.000002 -0.000001 0.000003 -0.000001 -0.000001 0.000008 0.000003 -0.000003 0.000003 0.000004 -0.000001 0.000001 -0.000001 -0.000001 -0.000001 -0.000001 0.000001 0.000002 -0.000001 0.000000 -0.000003 -0.000003 0.000000 -0.000004 -0.000001 0.000001 -0.000005 -0.000003 -0.000001 -0.000002 -0.000000 0.000001 0.000002 -0.000001 -0.000000 -0.000001 -0.000001 -0.000000 -0.000001 -0.000001 -0.000000 -0.000001 -0.000001 -0.000000 -0.000001 -0.000001 -0.000000 -0.000001 0.000001 -0.000000 0.000000 -0.000001 -0.000000 -0.000001 -0.000001 -0.000000 -0.000001 0.000001 -0.000000 0.000000 0.000002 0.000000 -0.000001 0.000002 0.000000 -0.000001 -0.000000 0.000001 -0.000000 
6.311378 77.992226 38.533875 15.978891 27.698823 -6.570282 -0.000000 -0.000001 0.000000 -41.705446 5.644926 3.695543 36.584696 9.397073 4.176376 -4.488078 30.057880 -8.343758 -0.000000 -0.000000 0.000000 -0.000000 -0.000000 0.000000 0.000000 -0.000002 -0.000001 -34.635104 -9.147063 -3.662855 43.685200 8.538658 0.696238 -19.691511 8.176080 -7.945989 0.000000 -0.000002 0.000000 0.000000 -0.000002 0.000000 0.000002 0.000002 -0.000002 10.883381 -2.870482 2.244150 21.167048 -6.535261 1.778331 21.197842 -6.438526 1.678955 -6.434434 -0.181473 3.736511 -31.387175 -0.593156 9.442941 -0.000000 0.000000 0.000000 -0.000000 0.000000 0.000000 -0.000000 0.000000 0.000000 -1.561358 2.473158 30.223365 -94.336947 -67.310080 -50.327539 -0.000002 -36.171306 -0.000003 10.020839 -3.767780 -9.152457 -1.540041 3.690186 6.142347 3.939062 7.948695 0.746812 -0.000000 -0.000001 -0.000001 0.000028 -0.021372 0.177144 0.000098 0.032973 -0.273393 0.000000 -0.000000 -0.000002 0.000005 -0.001933 0.015970 -0.000007 0.001931 -0.015975 0.000000 -0.000002 0.000002 0.000006 -0.000008 -0.000004 0.000004 0.000001 0.000002 -0.000000 -0.000001 -0.000000 -0.018075 4.054254 0.511061 -0.018102 -4.054254 -0.511060 -0.000001 -0.000001 0.000001 -0.000000 -0.000001 0.000004 -0.395283 -2.506414 -9.041935 -65.442344 41.738647 34.107601 0.000001 38.938676 0.000005 28.797017 9.907483 29.277947 -1.849256 -3.581790 -6.586131 4.637201 -8.634128 -0.225407 0.000000 -0.000000 0.000000 0.000031 0.021584 -0.177115 0.000083 -0.033311 0.273356 -0.000001 0.000002 0.000006 0.000003 0.000000 0.000008 0.000001 0.000001 0.000004 0.000000 0.000000 0.000003 0.000000 0.000002 0.000006 0.000001 0.000002 0.000002 -0.000002 -0.000001 0.000002 -0.000004 0.000002 -0.000002 -0.000001 0.000001 -0.000003 -0.000000 -0.000003 -0.000002 0.000000 -0.000000 -0.000001 -0.000001 -0.000001 0.000000 -0.000001 -0.000001 0.000000 -0.000001 -0.000001 0.000000 -0.000001 -0.000001 0.000000 -0.000001 -0.000001 0.000001 -0.000003 0.000000 0.000001 -0.000001 -0.000001 0.000000 -0.000001 -0.000001 0.000001 -0.000003 0.000000 0.000001 0.000001 0.000000 -0.000001 0.000001 0.000000 -0.000001 -0.000000 -0.000001 0.000000 
5.808671 77.837868 39.513615 15.661866 28.900368 -6.804310 -0.000000 -0.000001 -0.000001 -41.266582 4.941265 4.238153 37.452454 9.367306 4.143196 -4.744592 30.111504 -9.268206 -0.000000 -0.000000 -0.000000 -0.000000 -0.000000 -0.000000 -0.000001 -0.000002 0.000000 -38.902951 -12.155475 -5.030622 49.991691 8.449958 0.792067 -11.496521 10.954636 -8.450462 -0.000000 -0.000001 0.000001 -0.000000 -0.000001 0.000001 -0.000003 -0.000000 0.000001 11.088935 -2.986259 1.591505 21.611359 -6.534911 1.149969 21.637529 -6.444135 1.056516 -6.264568 -0.162464 2.716241 -29.813072 -0.305448 6.437137 -0.000000 0.000000 -0.000000 -0.000000 0.000000 -0.000000 -0.000000 0.000000 -0.000000 -1.409204 2.085536 29.966799 -91.357578 -65.974320 -48.409307 0.000002 -35.136143 0.000002 10.366695 -2.741891 -10.195880 -1.540040 3.690186 6.142344 3.939062 7.948692 0.746817 -0.000000 0.000002 -0.000000 0.000029 -0.021373 0.177143 0.000095 0.032977 -0.273388 -0.000001 0.000002 -0.000001 0.000008 -0.001932 0.015967 -0.000008 0.001931 -0.015979 0.000001 0.000000 -0.000001 0.000008 -0.000007 -0.000003 0.000003 -0.000002 -0.000001 -0.000000 0.000001 -0.000004 -0.018073 4.054256 0.511060 -0.018098 -4.054263 -0.511063 -0.000001 0.000002 -0.000002 -0.000001 0.000003 0.000001 -0.495207 -3.090362 -9.148631 -67.870784 42.377062 35.996442 0.000001 38.701798 0.000006 29.740157 9.158076 27.961828 -1.849254 -3.581789 -6.586132 4.637199 -8.634128 -0.225406 -0.000000 -0.000001 -0.000001 0.000029 0.021586 -0.177113 0.000082 -0.033311 0.273356 0.000001 0.000000 0.000002 -0.000001 -0.000000 0.000008 -0.000001 -0.000004 -0.000000 0.000007 0.000003 0.000004 -0.000003 -0.000001 0.000004 0.000002 -0.000000 -0.000001 0.000006 0.000001 0.000006 -0.000003 0.000003 -0.000002 -0.000001 -0.000001 -0.000007 -0.000003 0.000000 0.000002 -0.000001 0.000001 -0.000002 -0.000000 -0.000000 -0.000001 -0.000000 -0.000000 -0.000001 -0.000000 -0.000000 -0.000001 -0.000000 -0.000000 -0.000001 -0.000000 -0.000000 -0.000001 -0.000000 -0.000000 0.000000 -0.000000 -0.000000 -0.000001 -0.000000 -0.000000 -0.000001 -0.000000 -0.000000 0.000000 -0.000000 0.000001 -0.000001 -0.000000 0.000001 -0.000001 -0.000000 -0.000001 -0.000001 
